<?xml version="1.0" encoding="iso-8859-1"?>
<!-- Generator: Adobe Illustrator 19.0.0, SVG Export Plug-In . SVG Version: 6.00 Build 0)  -->
<svg version="1.1" id="Capa_1" xmlns="http://www.w3.org/2000/svg" xmlns:xlink="http://www.w3.org/1999/xlink" x="0px" y="0px"
	 viewBox="0 0 512 512" style="enable-background:new 0 0 512 512;" xml:space="preserve">
<g>
	<path style="fill:#CF648C;" d="M119.467,413.916h42.667v59.733h-42.667V413.916z"/>
	<path style="fill:#CF648C;" d="M273.067,413.916h42.667v59.733h-42.667V413.916z"/>
</g>
<path style="fill:#FF7BAC;" d="M247.467,132.316h-34.133c-81.109-0.017-151.031,57.062-167.253,136.533H34.133
	c-14.14,0-25.6,11.46-25.6,25.6v51.2c0,14.14,11.46,25.6,25.6,25.6h18.594c18.5,41.506,59.691,68.25,105.139,68.267h192
	c55.595,0.282,101.154-44.049,102.4-99.627c1.527-113.101-88.909-206.02-202.01-207.556
	C249.327,132.316,248.397,132.316,247.467,132.316z"/>
<path style="fill:#CF648C;" d="M165.35,139.271c-72.9-29.355-122.684-19.012-122.684,10.112c0,24.559,17.621,49.041,27.537,60.885
	C92.407,175.981,126.165,150.791,165.35,139.271z"/>
<path style="fill:#FF7BAC;" d="M315.733,405.383v85.333H384v-76.8"/>
<path style="fill:#EEB83B;" d="M145.067,140.849c-0.026,32.128,12.928,62.908,35.934,85.333h167.066
	c47.172-46.131,48.009-121.771,1.877-168.943S228.173,9.231,181.001,55.363C158.003,77.856,145.05,108.679,145.067,140.849z"/>
<path style="fill:#FF7BAC;" d="M162.133,405.383v85.333H230.4v-76.8"/>
<circle style="fill:#FED856;" cx="264.533" cy="140.849" r="85.333"/>
<path d="M490.667,260.316c-12.169,0.367-21.743,10.53-21.376,22.699c0.009,0.299,0.026,0.589,0.043,0.887v2.014h-14.797
	c-10.496-42.59-33.911-80.896-67.046-109.645c19.652-67.849-19.43-138.786-87.279-158.438s-138.786,19.422-158.438,87.279
	c-1.519,5.239-2.697,10.564-3.533,15.957c-39.424-11.051-72.9-10.24-90.675,2.671c-8.465,5.777-13.5,15.386-13.431,25.643
	c0,24.004,14.566,47.266,25.549,61.44c-9.259,15.377-16.145,32.06-20.429,49.493h-5.12C15.283,260.316,0,275.599,0,294.449v51.2
	c0,18.85,15.283,34.133,34.133,34.133h13.201c13.423,26.641,36.002,47.548,63.599,58.88v34.987c0,4.71,3.823,8.533,8.533,8.533
	H153.6v8.533c0,4.71,3.823,8.533,8.533,8.533H230.4c4.71,0,8.533-3.823,8.533-8.533v-42.667h25.6v25.6
	c0,4.71,3.823,8.533,8.533,8.533H307.2v8.533c0,4.71,3.823,8.533,8.533,8.533H384c4.71,0,8.533-3.823,8.533-8.533v-51.2
	c40.533-16.632,67.345-55.714,68.267-99.516c0.145-12.399-0.768-24.781-2.748-37.018h11.281v17.067H486.4v-17.067h4.267
	c11.785,0,21.333-9.549,21.333-21.333C512,269.865,502.451,260.316,490.667,260.316z M264.533,29.916
	c61.235-0.026,110.908,49.587,110.933,110.831c0.017,28.672-11.076,56.235-30.95,76.902h-26.18
	c42.487-29.705,52.855-88.226,23.151-130.714S253.261,34.08,210.773,63.785s-52.855,88.226-23.151,130.714
	c6.298,9.011,14.14,16.853,23.151,23.151H184.55c-42.445-44.143-41.062-114.338,3.081-156.783
	C208.299,40.992,235.861,29.899,264.533,29.916z M264.533,217.649c-42.419,0-76.8-34.381-76.8-76.8s34.381-76.8,76.8-76.8
	s76.8,34.381,76.8,76.8C341.282,183.243,306.927,217.598,264.533,217.649z M51.2,149.383c-0.034-4.779,2.381-9.25,6.391-11.844
	c9.335-5.495,20.105-8.055,30.916-7.322c16.35,0.427,32.563,3.157,48.154,8.124c0,0.853-0.128,1.707-0.128,2.509v0.256
	c-26.377,12.501-49.314,31.249-66.807,54.613C59.17,182.398,52.736,166.296,51.2,149.383z M128,465.116v-20.821
	c8.38,2.099,16.964,3.311,25.6,3.601v17.22L128,465.116z M281.6,465.116v-17.067h25.6v17.067H281.6z M392.533,420.743v-6.827
	h-17.067v68.267h-51.2v-76.8H307.2v25.6h-68.267v-17.067h-17.067v68.267h-51.2v-76.8H153.6v25.446
	c-40.474-1.673-76.527-26.086-93.082-63.061c-1.374-3.072-4.429-5.052-7.791-5.052H34.133c-9.429,0-17.067-7.637-17.067-17.067
	v-51.2c0-9.429,7.637-17.067,17.067-17.067H46.08c4.053,0,7.552-2.85,8.363-6.827c4.011-19.669,11.648-38.417,22.528-55.279
	c0.102-0.145,0.273-0.205,0.367-0.35c15.13-23.39,36.028-42.496,60.681-55.467c3.055,21.146,11.426,41.165,24.337,58.189h-17.289
	v17.067H384v-17.067h-17.289c5.7-7.509,10.547-15.633,14.447-24.218c40.661,37.7,63.411,90.897,62.575,146.347
	C443,374.168,423.287,405.332,392.533,420.743z M490.667,285.916H486.4v-2.014c0-3.149,1.118-6.519,4.267-6.519
	c2.355,0,4.267,1.911,4.267,4.267C494.933,284.005,493.022,285.916,490.667,285.916z"/>
<path d="M273.067,99.42v-9.771H256v9.771c-12.8,3.985-19.942,17.587-15.966,30.379c1.971,6.323,6.434,11.571,12.365,14.524
	l16.631,8.311c3.601,1.792,5.077,6.161,3.285,9.771c-1.229,2.483-3.763,4.053-6.537,4.045h-2.492
	c-4.019-0.009-7.279-3.268-7.287-7.287v-1.246h-17.067v1.246c0.043,10.607,6.946,19.959,17.067,23.117v9.771h17.067v-9.771
	c12.8-3.985,19.942-17.587,15.966-30.379c-1.971-6.323-6.434-11.571-12.365-14.524l-16.631-8.311
	c-3.601-1.792-5.077-6.161-3.285-9.771c1.229-2.483,3.763-4.053,6.537-4.045h2.492c4.019,0.009,7.279,3.268,7.287,7.287v1.246
	h17.067v-1.246C290.091,111.93,283.187,102.577,273.067,99.42z"/>
<path d="M34.133,294.449H51.2v17.067H34.133V294.449z"/>
<path d="M204.8,132.316h17.067v17.067H204.8V132.316z"/>
<path d="M307.2,132.316h17.067v17.067H307.2V132.316z"/>
<path d="M93.867,234.716h17.067v17.067H93.867V234.716z"/>
<g>
</g>
<g>
</g>
<g>
</g>
<g>
</g>
<g>
</g>
<g>
</g>
<g>
</g>
<g>
</g>
<g>
</g>
<g>
</g>
<g>
</g>
<g>
</g>
<g>
</g>
<g>
</g>
<g>
</g>
</svg>
